<?xml version="1.0" encoding="UTF-8"?>
<svg version="1.1" xmlns="http://www.w3.org/2000/svg" width="100" height="100">
<path d="M0 0 C8.10563402 7.29885241 13.17435072 16.89558458 13.890625 27.796875 C14.43030856 42.27478584 11.51190149 52.50995308 1.640625 63.30859375 C-1.726405 66.80862494 -1.726405 66.80862494 -3.48828125 68.26171875 C-4.14828125 68.26171875 -4.80828125 68.26171875 -5.48828125 68.26171875 C-5.48828125 70.24171875 -5.48828125 72.22171875 -5.48828125 74.26171875 C-1.19828125 74.26171875 3.09171875 74.26171875 7.51171875 74.26171875 C7.51171875 70.96171875 7.51171875 67.66171875 7.51171875 64.26171875 C9.49171875 64.26171875 11.47171875 64.26171875 13.51171875 64.26171875 C13.51171875 69.54171875 13.51171875 74.82171875 13.51171875 80.26171875 C4.93171875 80.26171875 -3.64828125 80.26171875 -12.48828125 80.26171875 C-12.48828125 67.26171875 -12.48828125 67.26171875 -8.48828125 62.26171875 C-7.22015176 61.21178968 -5.92846588 60.18956862 -4.61328125 59.19921875 C2.35615691 53.27193956 5.96458042 44.52241636 6.75 35.53515625 C7.03029833 24.58876872 4.1399391 15.2960712 -3.48828125 7.26171875 C-12.04426099 -0.68575381 -21.12616433 -3.54256615 -32.73828125 -3.1796875 C-42.61388703 -2.0172464 -51.13659404 2.59199368 -57.48828125 10.26171875 C-63.72076486 20.50455575 -66.51827124 30.30656289 -63.8046875 42.27734375 C-60.70055965 51.4995659 -55.57850985 57.71162675 -48.125 63.81640625 C-46.48828125 65.26171875 -46.48828125 65.26171875 -45.48828125 67.26171875 C-45.48828125 71.55171875 -45.48828125 75.84171875 -45.48828125 80.26171875 C-54.06828125 80.26171875 -62.64828125 80.26171875 -71.48828125 80.26171875 C-71.48828125 74.98171875 -71.48828125 69.70171875 -71.48828125 64.26171875 C-69.50828125 64.26171875 -67.52828125 64.26171875 -65.48828125 64.26171875 C-65.48828125 67.56171875 -65.48828125 70.86171875 -65.48828125 74.26171875 C-61.19828125 74.26171875 -56.90828125 74.26171875 -52.48828125 74.26171875 C-52.48828125 72.28171875 -52.48828125 70.30171875 -52.48828125 68.26171875 C-53.06835938 68.00132813 -53.6484375 67.7409375 -54.24609375 67.47265625 C-62.60379836 62.95891334 -66.98359072 54.75058855 -70.48828125 46.26171875 C-73.30178282 36.58628957 -72.78597128 23.70923786 -68.75 14.546875 C-66.66861247 10.77717932 -64.32871032 7.4941683 -61.48828125 4.26171875 C-60.98683594 3.65585937 -60.48539063 3.05 -59.96875 2.42578125 C-43.99742719 -15.37194587 -17.77967447 -13.7215462 0 0 Z " fill="#FFA82A" transform="translate(79.48828125,14.73828125)"/>
<path d="M0 0 C4.43419514 3.32564636 6.12147643 6.95764725 8 12 C8.81984375 11.97679687 9.6396875 11.95359375 10.484375 11.9296875 C12.10085937 11.90261719 12.10085937 11.90261719 13.75 11.875 C15.35101563 11.84019531 15.35101563 11.84019531 16.984375 11.8046875 C19.95397919 11.99701938 21.53206945 12.39840997 24 14 C26.06280441 16.6521771 25.9981076 18.03469392 25.8125 21.4375 C25.02560366 24.88773778 24.00780255 27.11923982 22 30 C20.125 29.6875 20.125 29.6875 18 29 C17.34 28.01 16.68 27.02 16 26 C17.375 22.3125 17.375 22.3125 19 19 C15.7 19 12.4 19 9 19 C10.80986259 23.32356062 12.68442077 25.72985147 16.37890625 28.5859375 C20.56386537 32.23643196 24.70925361 37.55018191 26 43 C25.80531882 46.24468631 25.59842367 48.24546581 23.5625 50.8125 C20.30437719 53.28867333 17.90850371 53.10540961 13.875 53.0625 C12.77929688 53.05347656 11.68359375 53.04445312 10.5546875 53.03515625 C9.71164063 53.02355469 8.86859375 53.01195312 8 53 C7.75765625 53.53109375 7.5153125 54.0621875 7.265625 54.609375 C3.46213292 62.625966 3.46213292 62.625966 0 65 C-3.4375 65.5625 -3.4375 65.5625 -7 65 C-11.12113087 61.88625668 -12.73080317 58.96140578 -14 54 C-10.535 53.505 -10.535 53.505 -7 53 C-5.515 55.475 -5.515 55.475 -4 58 C-1.65941363 55.87219421 -0.29299694 53.88437779 1 51 C-1.97285946 49.45411308 -3.41926026 48.85523107 -6.7265625 49.6796875 C-8.16128906 50.27136719 -8.16128906 50.27136719 -9.625 50.875 C-15.52879848 53.01521795 -20.74669896 54.01629105 -27 53 C-30.59587483 51.13014509 -31.61485867 49.99683639 -33.0625 46.25 C-32.95516697 40.66868246 -30.0301969 36.54529535 -27 32 C-27.61875 31.278125 -28.2375 30.55625 -28.875 29.8125 C-31.69760881 26.07669423 -33.06811948 23.66892729 -32.875 18.9375 C-31.78814554 15.28877432 -31.26805294 14.02308039 -28 12 C-24.30937838 11.67029029 -20.69463346 11.77067792 -17 12 C-17.33 14.31 -17.66 16.62 -18 19 C-20.31 19 -22.62 19 -25 19 C-24.50168276 22.68754757 -23.89932357 24.60490662 -21 27 C-17.06663275 24.37775516 -16.96436291 21.68003698 -16.0625 17.3125 C-14.12179472 7.92227131 -11.49113377 -1.38686097 0 0 Z M-4 6 C-4.82518076 7.1997093 -5.63453185 8.41031163 -6.4375 9.625 C-7.11619141 10.63433594 -7.11619141 10.63433594 -7.80859375 11.6640625 C-9.38876845 14.47202041 -9.38876845 14.47202041 -10 20 C-6.04 18.35 -2.08 16.7 2 15 C0.07608351 9.68588506 0.07608351 9.68588506 -4 6 Z M2 21 C-0.44396375 22.23851545 -2.87963994 23.49000636 -5.3125 24.75 C-6.00279297 25.09804688 -6.69308594 25.44609375 -7.40429688 25.8046875 C-11.11677089 27.74163047 -13.81090268 29.27601835 -16 33 C-9.93396006 37.50837206 -4.05809316 41.25518599 3 44 C4.28968723 40.04839833 4.18380085 36.04725179 4.1875 31.9375 C4.20586914 30.85758789 4.20586914 30.85758789 4.22460938 29.75585938 C4.23519011 25.9573753 4.15755655 24.23633482 2 21 Z M10 33 C9.67 37.29 9.34 41.58 9 46 C10.27875 46.185625 11.5575 46.37125 12.875 46.5625 C13.95394531 46.71912109 13.95394531 46.71912109 15.0546875 46.87890625 C17.08140667 47.1684297 17.08140667 47.1684297 19 46 C18.47788717 41.85935519 17.31033918 39.74547153 14.5 36.6875 C13.8709375 35.99011719 13.241875 35.29273438 12.59375 34.57421875 C11.25478034 32.88287767 11.25478034 32.88287767 10 33 Z M-22 37 C-25.16609117 41.08275313 -25.16609117 41.08275313 -26 46 C-20.51053913 47.12029814 -17.16569441 46.79217969 -12 45 C-12 44.34 -12 43.68 -12 43 C-13.98206245 41.40841408 -13.98206245 41.40841408 -16.4375 39.875 C-17.26121094 39.33617187 -18.08492187 38.79734375 -18.93359375 38.2421875 C-20.74100566 36.91413161 -20.74100566 36.91413161 -22 37 Z " fill="#FFA82C" transform="translate(54,15)"/>
<path d="M0 0 C3.5 0.25 3.5 0.25 5.5 2.25 C5.8125 5.75 5.8125 5.75 5.5 9.25 C2.5 11.25 2.5 11.25 -1.125 10.9375 C-4.5 10.25 -4.5 10.25 -5.5 9.25 C-5.6875 5.8125 -5.6875 5.8125 -5.5 2.25 C-3.5 0.25 -3.5 0.25 0 0 Z " fill="#FFA92D" transform="translate(50.5,41.75)"/>
</svg>
