<?xml version="1.0" encoding="UTF-8"?>
<svg version="1.1" viewBox="0 0 73 73" xmlns="http://www.w3.org/2000/svg">
<title>WallettTansactionSendReceive</title>
<g fill="none" fill-rule="evenodd">
<polygon points="41 17 31 17 31 13 41 13" fill="#6ebfff" fill-rule="nonzero"/>
<polygon points="61 43 57 43 57 33 61 33" fill="#6ebfff" fill-rule="nonzero"/>
<polygon points="51 16.618 57.358 16.618 57.358 23 61 23 61 13 57.358 13 51 13" fill="#6ebfff" fill-rule="nonzero"/>
<polygon points="41 63 31 63 31 59 41 59" fill="#6ebfff" fill-rule="nonzero"/>
<polygon points="51 58.358 51 62 61 62 61 52 57.358 52 57.358 58.358" fill="#6ebfff" fill-rule="nonzero"/>
<polygon points="15 43 11 43 11 33 15 33" fill="#6ebfff" fill-rule="nonzero"/>
<polygon points="11 23 14.618 23 14.618 16.576 21 16.576 21 13 20.934 13 11 13" fill="#6ebfff" fill-rule="nonzero"/>
<polygon points="11 52 11 62 21 62 21 58.358 14.576 58.358 14.576 58.424 14.576 52" fill="#6ebfff" fill-rule="nonzero"/>
<polygon points="30.296 26 30.296 37.104 25 37.104 36 51 47 37.104 41.704 37.104 41.704 26" fill="#4aafff" fill-rule="nonzero"/>
<rect x="5.6843e-14" width="73" height="73"/>
</g>
</svg>
